HIERARCHY
ROOT Hips
{
    OFFSET 0.000000 0.000000 0.000000
    CHANNELS 6 Xposition Yposition Zposition Zrotation Xrotation Yrotation
    JOINT Spine
    {
        OFFSET -0.000000 7.761268 0.000000
        CHANNELS 3 Zrotation Xrotation Yrotation
        JOINT Spine1
        {
            OFFSET -0.000000 24.785763 0.000000
            CHANNELS 3 Zrotation Xrotation Yrotation
            JOINT Neck
            {
                OFFSET -0.000000 24.683973 2.243998
                CHANNELS 3 Zrotation Xrotation Yrotation
                JOINT Head
                {
                    OFFSET -0.000000 13.250945 -1.892992
                    CHANNELS 3 Zrotation Xrotation Yrotation
                    End Site
                    {
                        OFFSET -0.000000 23.662401 0.000000
                    }
                }
            }
            JOINT LeftShoulder
            {
                OFFSET 3.794134 23.444212 -0.177979
                CHANNELS 3 Zrotation Xrotation Yrotation
                JOINT LeftArm
                {
                    OFFSET 9.211075 0.000000 0.000000
                    CHANNELS 3 Zrotation Xrotation Yrotation
                    JOINT LeftForeArm
                    {
                        OFFSET 34.352840 0.000000 0.000000
                        CHANNELS 3 Zrotation Xrotation Yrotation
                        JOINT LeftHand
                        {
                            OFFSET 25.460636 0.000000 0.000000
                            CHANNELS 3 Zrotation Xrotation Yrotation
                            End Site
                            {
                                OFFSET 14.197442 0.000000 0.000000
                            }
                        }
                    }
                }
            }
            JOINT RightShoulder
            {
                OFFSET -3.767389 23.444212 -0.177979
                CHANNELS 3 Zrotation Xrotation Yrotation
                JOINT RightArm
                {
                    OFFSET -9.211075 0.000000 0.000000
                    CHANNELS 3 Zrotation Xrotation Yrotation
                    JOINT RightForeArm
                    {
                        OFFSET -34.352840 0.000000 0.000000
                        CHANNELS 3 Zrotation Xrotation Yrotation
                        JOINT RightHand
                        {
                            OFFSET -25.460636 0.000000 0.000000
                            CHANNELS 3 Zrotation Xrotation Yrotation
                            End Site
                            {
                                OFFSET -14.197442 0.000000 0.000000
                            }
                        }
                    }
                }
            }
        }
    }
    JOINT LeftUpLeg
    {
        OFFSET 9.464960 0.000000 0.000000
        CHANNELS 3 Zrotation Xrotation Yrotation
        JOINT LeftLeg
        {
            OFFSET -0.000000 -36.073700 0.000000
            CHANNELS 3 Zrotation Xrotation Yrotation
            JOINT LeftFoot
            {
                OFFSET -0.000000 -40.808823 0.000000
                CHANNELS 3 Zrotation Xrotation Yrotation
                JOINT LeftToeBase
                {
                    OFFSET -0.000000 -6.152224 14.197442
                    CHANNELS 3 Zrotation Xrotation Yrotation
                    End Site
                    {
                        OFFSET -0.000000 0.000000 3.785984
                    }
                }
            }
        }
    }
    JOINT RightUpLeg
    {
        OFFSET -9.464960 0.000000 0.000000
        CHANNELS 3 Zrotation Xrotation Yrotation
        JOINT RightLeg
        {
            OFFSET -0.000000 -36.073700 0.000000
            CHANNELS 3 Zrotation Xrotation Yrotation
            JOINT RightFoot
            {
                OFFSET -0.000000 -40.808823 0.000000
                CHANNELS 3 Zrotation Xrotation Yrotation
                JOINT RightToeBase
                {
                    OFFSET -0.000000 -6.152224 14.197442
                    CHANNELS 3 Zrotation Xrotation Yrotation
                    End Site
                    {
                        OFFSET -0.000000 0.000000 3.785984
                    }
                }
            }
        }
    }
}
MOTION
Frames:    10
Frame Time:    0.004000
-30.596537    78.552399    -203.944321    0.702418    0.897145    10.045519    0.417322    -5.102530    0.659017    -1.270885    -5.314042    0.581411    -2.251169    17.418730    -5.457473    3.408489    2.953944    -5.307107    11.498080    1.687278    -5.844011    -10.564166    -2.105828    -1.397664    1.426152    -0.227175    -1.849460    -5.228285    -0.189649    -0.320999    -13.733445    -1.255854    -0.807637    15.282101    -2.743210    -3.887255    -2.394684    2.463382    -2.562857    1.046421    2.421509    1.276769    -3.406471    5.582292    -2.315807    1.291680    -1.842641    -5.655135    2.950041    -3.851174    15.623962    0.000000    0.000000    0.000000    0.935073    12.357666    -2.889886    0.929934    -12.811853    0.279531    -2.020959    -1.265175    -22.434433    0.000000    0.000000    0.000000    
-30.606621    78.553116    -203.936646    0.706036    0.882912    10.022300    0.407883    -5.090011    0.665542    -1.264932    -5.311029    0.588781    -2.228164    17.403782    -5.464477    3.379837    2.973790    -5.317790    11.492593    1.688071    -5.841922    -10.557935    -2.115766    -1.409011    1.368585    -0.256433    -1.854845    -4.995461    -0.223093    -0.258894    -13.729568    -1.248720    -0.809438    15.275615    -2.745022    -3.880306    -2.397496    2.455094    -2.557702    1.039030    2.412991    1.255033    -3.398783    5.605769    -2.301118    1.285944    -1.847146    -5.629652    2.972609    -3.856608    15.602827    0.000000    0.000000    0.000000    0.936593    12.380645    -2.855760    0.929381    -12.818134    0.295623    -2.024832    -1.245656    -22.452316    0.000000    0.000000    0.000000    
-30.616632    78.553604    -203.934265    0.706211    0.892159    10.008636    0.394618    -5.100781    0.664308    -1.250972    -5.305281    0.588809    -2.265358    17.401594    -5.456091    3.430692    2.971359    -5.303386    11.474134    1.692503    -5.842679    -10.547778    -2.107954    -1.409646    1.373811    -0.252288    -1.853340    -4.961055    -0.218745    -0.259971    -13.739592    -1.242626    -0.796403    15.278397    -2.767872    -3.878801    -2.407351    2.485869    -2.557416    1.123965    2.444490    1.256763    -3.400736    5.611331    -2.294635    1.297446    -1.881128    -5.625175    3.012648    -3.830824    15.608475    0.000000    0.000000    0.000000    0.944099    12.368215    -2.872419    0.926815    -12.815825    0.291508    -2.002565    -1.252780    -22.431297    0.000000    0.000000    0.000000    
-30.625957    78.554596    -203.933670    0.704156    0.903736    9.997675    0.401717    -5.106631    0.667438    -1.279298    -5.309615    0.590238    -2.223131    17.406284    -5.468278    3.406817    2.955491    -5.318041    11.495312    1.706745    -5.845030    -10.559232    -2.068649    -1.421066    1.491150    -0.422392    -1.884379    -6.185544    -0.382483    -0.287475    -13.711396    -1.245408    -0.806035    15.262492    -2.766716    -3.865878    -2.401231    2.481714    -2.560007    1.080466    2.439854    1.247540    -3.390915    5.589783    -2.295427    1.286004    -1.853972    -5.623797    2.946279    -3.840862    15.629386    0.000000    0.000000    0.000000    0.945152    12.358935    -2.846503    0.926192    -12.820042    0.286446    -1.973774    -1.248402    -22.441355    0.000000    0.000000    0.000000    
-30.634762    78.553734    -203.928757    0.707757    0.904052    9.981353    0.395944    -5.108193    0.667260    -1.281994    -5.306831    0.590263    -2.223891    17.395222    -5.454161    3.408871    2.967536    -5.303227    11.484525    1.690088    -5.844941    -10.545232    -2.064572    -1.416633    1.407561    -0.459292    -1.923409    -5.754718    -0.430113    -0.113522    -13.721781    -1.249041    -0.792293    15.276921    -2.767233    -3.865505    -2.405261    2.492036    -2.563118    1.091855    2.450260    1.258748    -3.395482    5.597939    -2.289406    1.302073    -1.869776    -5.633016    2.964110    -3.840177    15.626329    0.000000    0.000000    0.000000    0.945363    12.361099    -2.848772    0.930781    -12.825466    0.286841    -2.007179    -1.247945    -22.422621    0.000000    0.000000    0.000000    
-30.643126    78.555069    -203.924988    0.708887    0.898748    9.969403    0.384298    -5.099406    0.669118    -1.268126    -5.309589    0.593322    -2.220842    17.406208    -5.466812    3.399816    2.946590    -5.317052    11.470385    1.702138    -5.854356    -10.543161    -2.054644    -1.419631    1.430992    -0.475896    -1.932196    -5.921899    -0.447025    -0.091965    -13.721846    -1.250758    -0.792014    15.262954    -2.793364    -3.859294    -2.393389    2.505702    -2.567650    1.044926    2.463352    1.236081    -3.390203    5.615230    -2.306381    1.297974    -1.884058    -5.584336    2.968721    -3.823456    15.627549    0.000000    0.000000    0.000000    0.947659    12.373777    -2.833064    0.930722    -12.836827    0.275719    -1.959968    -1.252523    -22.418510    0.000000    0.000000    0.000000    
-30.653255    78.553215    -203.923111    0.713235    0.900485    9.959435    0.368523    -5.098653    0.668789    -1.262295    -5.300213    0.594006    -2.237686    17.375118    -5.466409    3.437102    2.970170    -5.312493    11.480572    1.702294    -5.857035    -10.546911    -2.092643    -1.421137    1.419346    -0.436261    -1.938712    -5.936461    -0.407918    -0.083974    -13.730400    -1.256942    -0.794467    15.272109    -2.791394    -3.856143    -2.397897    2.508491    -2.562379    1.059695    2.466403    1.246108    -3.396666    5.617928    -2.291405    1.309188    -1.894921    -5.559072    2.932914    -3.831112    15.609256    0.000000    0.000000    0.000000    0.952177    12.367787    -2.863273    0.933837    -12.829251    0.278638    -1.977905    -1.253478    -22.376659    0.000000    0.000000    0.000000    
-30.663088    78.553818    -203.919800    0.708685    0.903660    9.943787    0.372376    -5.100619    0.672778    -1.273823    -5.300597    0.597343    -2.212281    17.358545    -5.464942    3.418448    2.994729    -5.313252    11.484008    1.702181    -5.868243    -10.546250    -2.072289    -1.416019    1.330678    -0.261017    -1.910360    -4.628798    -0.235175    -0.089723    -13.716816    -1.254272    -0.795650    15.266140    -2.789575    -3.848041    -2.394507    2.509386    -2.558572    1.017192    2.466773    1.216895    -3.383561    5.611026    -2.284261    1.304381    -1.874298    -5.553860    2.953491    -3.845897    15.602174    0.000000    0.000000    0.000000    0.961300    12.371681    -2.839674    0.928183    -12.840773    0.293688    -1.951682    -1.243881    -22.402487    0.000000    0.000000    0.000000    
-30.671839    78.552879    -203.913406    0.710539    0.887523    9.926498    0.365445    -5.081172    0.671512    -1.272776    -5.305841    0.596439    -2.218837    17.354515    -5.469464    3.438663    3.008310    -5.315992    11.484818    1.712589    -5.855478    -10.539585    -2.093732    -1.430019    1.319375    -0.239190    -1.912989    -4.644547    -0.214100    -0.079273    -13.707664    -1.267828    -0.776918    15.262307    -2.773598    -3.855223    -2.396249    2.524341    -2.553924    0.990074    2.481509    1.221821    -3.380286    5.637194    -2.275960    1.311098    -1.902252    -5.606397    2.946247    -3.830888    15.660768    0.000000    0.000000    0.000000    0.967486    12.392123    -2.828952    0.927026    -12.851762    0.243373    -1.948521    -1.240476    -22.352104    0.000000    0.000000    0.000000    
-30.679125    78.552269    -203.910904    0.712936    0.896075    9.909835    0.349255    -5.093134    0.673587    -1.252605    -5.294387    0.600187    -2.284483    17.397118    -5.457869    3.539438    2.926529    -5.291255    11.474729    1.714641    -5.871148    -10.539274    -2.129221    -1.419274    1.327628    -0.212115    -1.907876    -4.732966    -0.185404    -0.116024    -13.723415    -1.260938    -0.774188    15.263564    -2.799536    -3.843708    -2.391404    2.540607    -2.556651    0.993484    2.497799    1.213624    -3.373904    5.615643    -2.285399    1.300155    -1.859925    -5.535242    2.974203    -3.854998    15.613138    0.000000    0.000000    0.000000    0.961069    12.383415    -2.836867    0.937641    -12.845943    0.310458    -1.940353    -1.259038    -22.382704    0.000000    0.000000    0.000000    
